<svg width="51" height="106" viewBox="0 0 51 106" fill="none" xmlns="http://www.w3.org/2000/svg">
<path d="M3.66406 84V79.0781L10.0312 77.9844V33.1797L3.66406 32.0859V27.125H10.0312H29.7969C33.8594 27.125 37.3229 27.8411 40.1875 29.2734C43.0521 30.6797 45.2396 32.6589 46.75 35.2109C48.2604 37.763 49.0156 40.7448 49.0156 44.1562C49.0156 47.5938 48.2604 50.5885 46.75 53.1406C45.2396 55.6927 43.0521 57.6719 40.1875 59.0781C37.3229 60.4844 33.8594 61.1875 29.7969 61.1875H17.7266V77.9844L24.0938 79.0781V84H3.66406ZM17.7266 55.1719H29.7969C33.651 55.1719 36.5286 54.1432 38.4297 52.0859C40.3568 50.0026 41.3203 47.3854 41.3203 44.2344C41.3203 41.0833 40.3568 38.4531 38.4297 36.3438C36.5286 34.2344 33.651 33.1797 29.7969 33.1797H17.7266V55.1719Z" fill="white"/>
<rect x="3.5" y="66" width="42" height="4.5" fill="white"/>
</svg>
