<svg width="24" height="34" viewBox="0 0 24 34" fill="none" xmlns="http://www.w3.org/2000/svg">
<path fill-rule="evenodd" clip-rule="evenodd" d="M23.1204 9.29784C23.1344 11.02 22.6414 12.6998 21.7171 14.0796C20.7474 16.0614 17.6048 17.6487 17.6048 17.6487C16.4174 18.1853 15.1452 18.4495 13.8642 18.4257H6.20073V21.9453H22.8985V24.6444H6.20073V31.6421L9.61373 31.9688V33.9998H0.295588V31.9688L3.70859 31.6421V24.5328L0.134766 24.5554V21.9692L3.70859 21.9068V2.4094L0.295588 2.08264V0.0277996H12.9636C15.6442 -0.167808 18.3033 0.673346 20.4924 2.4094C22.292 4.11632 23.2657 6.66847 23.1204 9.29784ZM18.7019 4.20342C17.0384 2.86992 15.0065 2.2331 12.9635 2.40493H6.20068V16.041H12.6705C15.4207 16.041 17.4312 15.426 18.7019 14.196C19.9747 12.9614 20.6759 11.149 20.6079 9.26946C20.7049 7.34384 20.002 5.47553 18.7019 4.20342Z" fill="white"/>
</svg>
